<?xml version="1.0" encoding="UTF-8"?>
<svg width="309px" height="310px" viewBox="0 0 309 310" version="1.1" xmlns="http://www.w3.org/2000/svg" xmlns:xlink="http://www.w3.org/1999/xlink">
    <!-- Generator: sketchtool 53.2 (72643) - https://sketchapp.com -->
    <title>F68E580D-B6C2-4C57-9DDA-959697D493DB</title>
    <desc>Created with sketchtool.</desc>
    <g id="Page-1" stroke="none" stroke-width="1" fill="none" fill-rule="evenodd">
        <g id="Tablet" transform="translate(-230.000000, -3652.000000)" fill="#FFFFFF">
            <g id="Process-video-Copy" transform="translate(45.000000, 3461.000000)">
                <g id="Group-7" transform="translate(185.000000, 191.000000)">
                    <path d="M64,0 L245,0 C280.346224,-6.49299601e-15 309,28.653776 309,64 L309,246 C309,281.346224 280.346224,310 245,310 L64,310 C28.653776,310 4.32866401e-15,281.346224 0,246 L0,64 C-4.32866401e-15,28.653776 28.653776,-6.12431347e-16 64,-7.10542736e-15 Z M154.500875,64 C120.58921,64 93,91.5892103 93,125.500875 C93,159.41079 120.58921,187 154.500875,187 C188.41079,187 216,159.41079 216,125.500875 C216,91.5892103 188.41079,64 154.500875,64 Z M146,143 L146,109 L171,126.000887 L146,143 Z M71.4953914,227.711914 C71.4953914,228.454756 71.6799598,229.098467 72.0491023,229.643066 C72.4182448,230.187665 72.9138453,230.596678 73.5359187,230.870117 C74.1579921,231.143556 74.8655046,231.280273 75.6584773,231.280273 C76.4696793,231.280273 77.1885849,231.143556 77.8152156,230.870117 C78.4418463,230.596678 78.9363075,230.187665 79.298614,229.643066 C79.6609205,229.098467 79.8420711,228.454756 79.8420711,227.711914 L79.8420711,221.860352 L77.8254695,221.860352 L77.8254695,227.711914 C77.8254695,228.29525 77.6249507,228.748696 77.223907,229.072266 C76.8228633,229.395835 76.3010586,229.557617 75.6584773,229.557617 C75.0432399,229.557617 74.531689,229.394696 74.1238093,229.068848 C73.7159297,228.743 73.5119929,228.290693 73.5119929,227.711914 L73.5119929,221.860352 L71.4953914,221.860352 L71.4953914,227.711914 Z M85.1759381,231 L87.1925397,231 L87.1925397,225.34668 L87.2062116,225.34668 L91.8546491,231 L93.5909772,231 L93.5909772,221.860352 L91.5743756,221.860352 L91.5743756,227.527344 L91.5607038,227.527344 L86.8985944,221.860352 L85.1759381,221.860352 L85.1759381,231 Z M99.0889068,231 L103.388711,231 C104.209028,231 104.892615,230.898601 105.439493,230.695801 C105.98637,230.493 106.469439,230.193361 106.888711,229.796875 C107.312542,229.377602 107.637245,228.877444 107.862833,228.296387 C108.08842,227.715329 108.201211,227.089847 108.201211,226.419922 C108.201211,225.777341 108.096395,225.176923 107.886758,224.618652 C107.677122,224.060381 107.371786,223.573895 106.970743,223.15918 C106.546912,222.730792 106.047894,222.407228 105.473672,222.188477 C104.899451,221.969725 104.204471,221.860352 103.388711,221.860352 L99.0889068,221.860352 L99.0889068,231 Z M101.091836,229.277344 L101.091836,223.59668 L103.313516,223.59668 C103.823935,223.59668 104.227252,223.654785 104.523477,223.770996 C104.819703,223.887208 105.093137,224.070637 105.34379,224.321289 C105.858766,224.849938 106.116251,225.554032 106.116251,226.433594 C106.116251,227.331385 105.83598,228.060544 105.27543,228.621094 C105.011106,228.853517 104.741089,229.020996 104.465372,229.123535 C104.189654,229.226075 103.805706,229.277344 103.313516,229.277344 L101.091836,229.277344 Z M112.988204,231 L120.924727,231 L120.924727,229.277344 L114.991133,229.277344 L114.991133,227.09668 L118.36125,227.09668 L118.36125,225.374023 L114.991133,225.374023 L114.991133,223.59668 L120.603438,223.59668 L120.603438,221.860352 L112.988204,221.860352 L112.988204,231 Z M125.561328,231 L127.564258,231 L127.564258,227.636719 L130.278125,227.636719 L132.123828,231 L134.420703,231 L132.281055,227.31543 C132.855277,227.064777 133.306444,226.717287 133.634571,226.272949 C133.962697,225.828611 134.126758,225.319339 134.126758,224.745117 C134.126758,224.01139 133.87611,223.380211 133.374805,222.851562 C132.741338,222.190752 131.825332,221.860352 130.626758,221.860352 L125.561328,221.860352 L125.561328,231 Z M127.564258,225.948242 L127.564258,223.548828 L130.701953,223.548828 C131.185029,223.548828 131.54733,223.680988 131.788867,223.945312 C132.003061,224.159506 132.110157,224.426105 132.110157,224.745117 C132.110157,225.091473 131.987111,225.37858 131.741016,225.606445 C131.494921,225.834311 131.194143,225.948242 130.838672,225.948242 L127.564258,225.948242 Z M138.161797,229.475586 C139.638367,230.678717 141.313155,231.280273 143.186211,231.280273 C143.76499,231.280273 144.295909,231.221029 144.778985,231.102539 C145.26206,230.984049 145.694998,230.804038 146.077813,230.5625 C146.460627,230.320962 146.760266,229.99398 146.976738,229.581543 C147.193211,229.169106 147.301445,228.689456 147.301445,228.142578 C147.301445,227.796222 147.247898,227.481772 147.140801,227.199219 C147.033704,226.916665 146.904962,226.683106 146.75457,226.498535 C146.604179,226.313964 146.397964,226.151042 146.135918,226.009766 C145.873873,225.868489 145.635756,225.759115 145.421563,225.681641 C145.207369,225.604166 144.931656,225.538086 144.594414,225.483398 C144.257173,225.428711 143.991713,225.393392 143.798028,225.377441 C143.604342,225.361491 143.347997,225.342123 143.028985,225.319336 C142.997083,225.314779 142.949232,225.310221 142.88543,225.305664 C142.475272,225.273763 142.187026,225.246419 142.020684,225.223633 C141.854342,225.200846 141.635594,225.156413 141.364434,225.090332 C141.093274,225.024251 140.904148,224.930827 140.797051,224.810059 C140.689954,224.68929 140.636406,224.535483 140.636406,224.348633 C140.636406,223.97949 140.800467,223.700359 141.128594,223.51123 C141.456721,223.322102 141.866873,223.227539 142.359063,223.227539 C143.038103,223.227539 143.655609,223.327798 144.211602,223.52832 C144.767594,223.728842 145.218761,223.956704 145.565117,224.211914 L146.713555,222.810547 C146.239594,222.486978 145.620948,222.20101 144.857598,221.952637 C144.094248,221.704263 143.27964,221.580078 142.41375,221.580078 C142.112967,221.580078 141.819025,221.600586 141.531914,221.641602 C141.244803,221.682617 140.956558,221.747558 140.667168,221.836426 C140.377779,221.925293 140.113458,222.04606 139.874199,222.19873 C139.63494,222.351401 139.42075,222.531412 139.231621,222.73877 C139.042493,222.946127 138.895522,223.199054 138.790703,223.497559 C138.685885,223.796063 138.633477,224.123045 138.633477,224.478516 C138.633477,224.729168 138.663099,224.961587 138.722344,225.175781 C138.781589,225.389975 138.856784,225.577961 138.94793,225.739746 C139.039076,225.901531 139.163261,226.047363 139.320488,226.177246 C139.477716,226.30713 139.632662,226.417643 139.785332,226.508789 C139.938002,226.599935 140.127128,226.680826 140.352715,226.751465 C140.578302,226.822103 140.782239,226.877929 140.964531,226.918945 C141.146824,226.959961 141.370129,226.997558 141.634453,227.031738 C141.898778,227.065918 142.123222,227.089844 142.307793,227.103516 C142.492364,227.117188 142.719087,227.133138 142.987969,227.151367 C143.288752,227.174154 143.546236,227.200358 143.76043,227.22998 C143.974624,227.259603 144.184257,227.304036 144.389336,227.363281 C144.594415,227.422526 144.759615,227.493164 144.884942,227.575195 C145.010268,227.657227 145.110527,227.762044 145.185723,227.889648 C145.260919,228.017253 145.298516,228.167642 145.298516,228.34082 C145.298516,228.750979 145.102554,229.069986 144.710625,229.297852 C144.318696,229.525717 143.819678,229.639648 143.213555,229.639648 C142.78061,229.639648 142.360204,229.591797 141.952324,229.496094 C141.544445,229.40039 141.17189,229.265951 140.834649,229.092773 C140.497407,228.919595 140.217137,228.760092 139.993828,228.614258 C139.77052,228.468424 139.5381,228.297527 139.296563,228.101562 L138.161797,229.475586 Z M150.857969,223.59668 L154.180234,223.59668 L154.180234,231 L156.176328,231 L156.176328,223.59668 L159.484922,223.59668 L159.484922,221.860352 L150.857969,221.860352 L150.857969,223.59668 Z M161.728945,231 L163.84125,231 L164.668398,229.06543 L168.893008,229.06543 L169.733828,231 L171.935,231 L167.689883,221.860352 L165.967227,221.860352 L161.728945,231 Z M165.351992,227.486328 L166.739687,224.25293 L166.821719,224.25293 L168.209414,227.486328 L165.351992,227.486328 Z M176.161445,231 L178.178047,231 L178.178047,225.34668 L178.191719,225.34668 L182.840156,231 L184.576484,231 L184.576484,221.860352 L182.559883,221.860352 L182.559883,227.527344 L182.546211,227.527344 L177.884101,221.860352 L176.161445,221.860352 L176.161445,231 Z M190.074414,231 L194.374218,231 C195.194535,231 195.878122,230.898601 196.425,230.695801 C196.971877,230.493 197.454946,230.193361 197.874218,229.796875 C198.298049,229.377602 198.622752,228.877444 198.84834,228.296387 C199.073927,227.715329 199.186718,227.089847 199.186718,226.419922 C199.186718,225.777341 199.081902,225.176923 198.872265,224.618652 C198.662629,224.060381 198.357293,223.573895 197.95625,223.15918 C197.532419,222.730792 197.033401,222.407228 196.459179,222.188477 C195.884958,221.969725 195.189978,221.860352 194.374218,221.860352 L190.074414,221.860352 L190.074414,231 Z M192.077343,229.277344 L192.077343,223.59668 L194.299023,223.59668 C194.809442,223.59668 195.212759,223.654785 195.508984,223.770996 C195.80521,223.887208 196.078644,224.070637 196.329297,224.321289 C196.844273,224.849938 197.101758,225.554032 197.101758,226.433594 C197.101758,227.331385 196.821487,228.060544 196.260937,228.621094 C195.996613,228.853517 195.726596,229.020996 195.450879,229.123535 C195.175161,229.226075 194.791213,229.277344 194.299023,229.277344 L192.077343,229.277344 Z M203.973711,231 L205.97664,231 L205.97664,221.860352 L203.973711,221.860352 L203.973711,231 Z M211.47457,231 L213.491171,231 L213.491171,225.34668 L213.504843,225.34668 L218.153281,231 L219.889609,231 L219.889609,221.860352 L217.873007,221.860352 L217.873007,227.527344 L217.859335,227.527344 L213.197226,221.860352 L211.47457,221.860352 L211.47457,231 Z M224.601406,226.419922 C224.601406,227.304041 224.822432,228.11637 225.264492,228.856934 C225.706551,229.597497 226.319501,230.184243 227.103359,230.617188 C227.887217,231.050132 228.757651,231.266602 229.714687,231.266602 C230.430185,231.266602 231.174156,231.137859 231.94662,230.880371 C232.719085,230.622883 233.401533,230.275393 233.993984,229.837891 L233.993984,225.736328 L229.366054,225.736328 L229.366054,227.390625 L232.120937,227.390625 L232.120937,228.928711 C231.838383,229.120118 231.486336,229.270507 231.064785,229.379883 C230.643233,229.489258 230.220548,229.543945 229.796718,229.543945 C229.304528,229.543945 228.856779,229.457358 228.453456,229.28418 C228.050134,229.111002 227.722012,228.877443 227.469081,228.583496 C227.21615,228.289549 227.022467,227.959149 226.888027,227.592285 C226.753586,227.225421 226.686367,226.839195 226.686367,226.433594 C226.686367,225.868487 226.810552,225.348961 227.058925,224.875 C227.307299,224.401039 227.660485,224.022788 228.118495,223.740234 C228.576506,223.457681 229.090335,223.316406 229.659999,223.316406 C230.152189,223.316406 230.677412,223.420084 231.235683,223.627441 C231.793954,223.834799 232.266768,224.113931 232.65414,224.464844 L233.980312,223.213867 C233.328616,222.685219 232.625661,222.280763 231.871425,222.000488 C231.11719,221.720213 230.375498,221.580078 229.646327,221.580078 C228.721193,221.580078 227.871266,221.796547 227.096523,222.229492 C226.321779,222.662437 225.712248,223.249182 225.26791,223.989746 C224.823571,224.73031 224.601406,225.54036 224.601406,226.419922 Z M86.0509381,241.59668 L89.3732038,241.59668 L89.3732038,249 L91.3692975,249 L91.3692975,241.59668 L94.6778913,241.59668 L94.6778913,239.860352 L86.0509381,239.860352 L86.0509381,241.59668 Z M99.1025786,249 L101.11918,249 L101.11918,244.939453 L105.432657,244.939453 L105.432657,249 L107.449258,249 L107.449258,239.860352 L105.432657,239.860352 L105.432657,243.244141 L101.11918,243.244141 L101.11918,239.860352 L99.1025786,239.860352 L99.1025786,249 Z M112.947188,249 L120.883711,249 L120.883711,247.277344 L114.950118,247.277344 L114.950118,245.09668 L118.320235,245.09668 L118.320235,243.374023 L114.950118,243.374023 L114.950118,241.59668 L120.562422,241.59668 L120.562422,239.860352 L112.947188,239.860352 L112.947188,249 Z M131.284844,249 L133.287774,249 L133.287774,245.636719 L136.350274,245.636719 C137.489602,245.636719 138.366872,245.342776 138.98211,244.754883 C139.560888,244.189776 139.850274,243.519861 139.850274,242.745117 C139.850274,242.038733 139.604182,241.412112 139.111992,240.865234 C138.483083,240.195309 137.562519,239.860352 136.350274,239.860352 L131.284844,239.860352 L131.284844,249 Z M133.287774,243.948242 L133.287774,241.548828 L136.425469,241.548828 C136.894872,241.548828 137.252616,241.676431 137.498711,241.931641 C137.72202,242.168621 137.833672,242.444334 137.833672,242.758789 C137.833672,243.073244 137.712905,243.351236 137.471367,243.592773 C137.225272,243.829754 136.876643,243.948242 136.425469,243.948242 L133.287774,243.948242 Z M144.315977,249 L146.318906,249 L146.318906,245.636719 L149.032773,245.636719 L150.878477,249 L153.175352,249 L151.035703,245.31543 C151.609925,245.064777 152.061092,244.717287 152.389219,244.272949 C152.717345,243.828611 152.881406,243.319339 152.881406,242.745117 C152.881406,242.01139 152.630758,241.380211 152.129453,240.851562 C151.495986,240.190752 150.57998,239.860352 149.381406,239.860352 L144.315977,239.860352 L144.315977,249 Z M146.318906,243.948242 L146.318906,241.548828 L149.456602,241.548828 C149.939677,241.548828 150.301978,241.680988 150.543516,241.945312 C150.757709,242.159506 150.864805,242.426105 150.864805,242.745117 C150.864805,243.091473 150.741759,243.37858 150.495664,243.606445 C150.249569,243.834311 149.948791,243.948242 149.59332,243.948242 L146.318906,243.948242 Z M157.066836,244.40625 C157.066836,245.299484 157.294698,246.118649 157.75043,246.86377 C158.206161,247.60889 158.829364,248.197915 159.620059,248.630859 C160.410753,249.063804 161.282326,249.280273 162.234805,249.280273 C162.945746,249.280273 163.623636,249.152671 164.268496,248.897461 C164.913356,248.642251 165.46934,248.298179 165.936465,247.865234 C166.40359,247.43229 166.773866,246.913903 167.047305,246.310059 C167.320743,245.706214 167.457461,245.071618 167.457461,244.40625 C167.457461,243.754554 167.320743,243.130211 167.047305,242.533203 C166.773866,241.936195 166.40359,241.422365 165.936465,240.991699 C165.46934,240.561033 164.913356,240.2181 164.268496,239.962891 C163.623636,239.707681 162.945746,239.580078 162.234805,239.580078 C161.523864,239.580078 160.848252,239.707681 160.207949,239.962891 C159.567646,240.2181 159.018498,240.562172 158.560488,240.995117 C158.102478,241.428062 157.739038,241.940752 157.470156,242.533203 C157.201275,243.125654 157.066836,243.749997 157.066836,244.40625 Z M159.165469,244.40625 C159.165469,243.554032 159.462829,242.826012 160.057559,242.222168 C160.652288,241.618324 161.37803,241.316406 162.234805,241.316406 C163.105252,241.316406 163.843526,241.618324 164.449648,242.222168 C165.055771,242.826012 165.358828,243.554032 165.358828,244.40625 C165.358828,245.27214 165.055771,246.013832 164.449648,246.631348 C163.843526,247.248864 163.105252,247.557617 162.234805,247.557617 C161.669698,247.557617 161.151311,247.415203 160.679629,247.130371 C160.207947,246.845539 159.837671,246.461591 159.568789,245.978516 C159.299907,245.49544 159.165469,244.971357 159.165469,244.40625 Z M171.389961,244.419922 C171.389961,245.08529 171.511867,245.715329 171.755683,246.310059 C171.9995,246.904788 172.337875,247.420896 172.77082,247.858398 C173.203765,248.295901 173.736963,248.642251 174.37043,248.897461 C175.003896,249.152671 175.69204,249.280273 176.434883,249.280273 C177.364575,249.280273 178.223616,249.104819 179.012031,248.753906 C179.800446,248.402993 180.490869,247.954104 181.08332,247.407227 L179.805,246.101562 C179.376612,246.52995 178.882151,246.879719 178.321601,247.150879 C177.761052,247.422039 177.186839,247.557617 176.598945,247.557617 C175.983708,247.557617 175.437977,247.416343 174.961738,247.133789 C174.485499,246.851236 174.122058,246.474123 173.871406,246.002441 C173.620754,245.530759 173.49543,245.007815 173.49543,244.433594 C173.49543,243.558589 173.7757,242.820316 174.33625,242.21875 C174.8968,241.617184 175.628238,241.316406 176.530586,241.316406 C177.022776,241.316406 177.540023,241.422362 178.082344,241.634277 C178.624664,241.846192 179.105453,242.13216 179.524726,242.492188 L180.789375,241.172852 C180.228825,240.689776 179.555492,240.30355 178.769355,240.01416 C177.983219,239.724771 177.180004,239.580078 176.359687,239.580078 C175.639632,239.580078 174.967438,239.70882 174.343086,239.966309 C173.718734,240.223797 173.192372,240.572426 172.763984,241.012207 C172.335597,241.451988 171.9995,241.966957 171.755683,242.557129 C171.511867,243.147301 171.389961,243.768226 171.389961,244.419922 Z M185.501172,249 L193.437695,249 L193.437695,247.277344 L187.504101,247.277344 L187.504101,245.09668 L190.874218,245.09668 L190.874218,243.374023 L187.504101,243.374023 L187.504101,241.59668 L193.116406,241.59668 L193.116406,239.860352 L185.501172,239.860352 L185.501172,249 Z M197.137773,247.475586 C198.614343,248.678717 200.289131,249.280273 202.162187,249.280273 C202.740966,249.280273 203.271885,249.221029 203.754961,249.102539 C204.238036,248.984049 204.670974,248.804038 205.053789,248.5625 C205.436603,248.320962 205.736242,247.99398 205.952714,247.581543 C206.169187,247.169106 206.277421,246.689456 206.277421,246.142578 C206.277421,245.796222 206.223874,245.481772 206.116777,245.199219 C206.00968,244.916665 205.880938,244.683106 205.730546,244.498535 C205.580155,244.313964 205.37394,244.151042 205.111894,244.009766 C204.849849,243.868489 204.611732,243.759115 204.397539,243.681641 C204.183345,243.604166 203.907631,243.538086 203.57039,243.483398 C203.233149,243.428711 202.967689,243.393392 202.774004,243.377441 C202.580318,243.361491 202.323973,243.342123 202.004961,243.319336 C201.973059,243.314779 201.925208,243.310221 201.861406,243.305664 C201.451248,243.273763 201.163002,243.246419 200.99666,243.223633 C200.830318,243.200846 200.61157,243.156413 200.34041,243.090332 C200.06925,243.024251 199.880124,242.930827 199.773027,242.810059 C199.66593,242.68929 199.612382,242.535483 199.612382,242.348633 C199.612382,241.97949 199.776443,241.700359 200.10457,241.51123 C200.432697,241.322102 200.842849,241.227539 201.335039,241.227539 C202.014079,241.227539 202.631585,241.327798 203.187578,241.52832 C203.74357,241.728842 204.194737,241.956704 204.541093,242.211914 L205.689531,240.810547 C205.21557,240.486978 204.596924,240.20101 203.833574,239.952637 C203.070224,239.704263 202.255616,239.580078 201.389726,239.580078 C201.088943,239.580078 200.795001,239.600586 200.50789,239.641602 C200.220779,239.682617 199.932534,239.747558 199.643144,239.836426 C199.353755,239.925293 199.089434,240.04606 198.850175,240.19873 C198.610916,240.351401 198.396726,240.531412 198.207597,240.73877 C198.018469,240.946127 197.871498,241.199054 197.766679,241.497559 C197.661861,241.796063 197.609453,242.123045 197.609453,242.478516 C197.609453,242.729168 197.639075,242.961587 197.69832,243.175781 C197.757565,243.389975 197.83276,243.577961 197.923906,243.739746 C198.015052,243.901531 198.139237,244.047363 198.296464,244.177246 C198.453692,244.30713 198.608638,244.417643 198.761308,244.508789 C198.913978,244.599935 199.103104,244.680826 199.328691,244.751465 C199.554278,244.822103 199.758215,244.877929 199.940507,244.918945 C200.1228,244.959961 200.346105,244.997558 200.610429,245.031738 C200.874754,245.065918 201.099198,245.089844 201.283769,245.103516 C201.46834,245.117188 201.695063,245.133138 201.963945,245.151367 C202.264728,245.174154 202.522212,245.200358 202.736406,245.22998 C202.9506,245.259603 203.160233,245.304036 203.365312,245.363281 C203.570391,245.422526 203.735591,245.493164 203.860918,245.575195 C203.986244,245.657227 204.086503,245.762044 204.161699,245.889648 C204.236895,246.017253 204.274492,246.167642 204.274492,246.34082 C204.274492,246.750979 204.07853,247.069986 203.686601,247.297852 C203.294672,247.525717 202.795654,247.639648 202.189531,247.639648 C201.756586,247.639648 201.33618,247.591797 200.9283,247.496094 C200.520421,247.40039 200.147866,247.265951 199.810625,247.092773 C199.473383,246.919595 199.193113,246.760092 198.969804,246.614258 C198.746496,246.468424 198.514076,246.297527 198.272539,246.101562 L197.137773,247.475586 Z M209.977499,247.475586 C211.454069,248.678717 213.128857,249.280273 215.001914,249.280273 C215.580692,249.280273 216.111612,249.221029 216.594687,249.102539 C217.077762,248.984049 217.510701,248.804038 217.893515,248.5625 C218.27633,248.320962 218.575968,247.99398 218.792441,247.581543 C219.008913,247.169106 219.117148,246.689456 219.117148,246.142578 C219.117148,245.796222 219.0636,245.481772 218.956503,245.199219 C218.849407,244.916665 218.720664,244.683106 218.570273,244.498535 C218.419882,244.313964 218.213666,244.151042 217.951621,244.009766 C217.689575,243.868489 217.451459,243.759115 217.237265,243.681641 C217.023071,243.604166 216.747358,243.538086 216.410117,243.483398 C216.072875,243.428711 215.807416,243.393392 215.61373,243.377441 C215.420044,243.361491 215.163699,243.342123 214.844687,243.319336 C214.812786,243.314779 214.764935,243.310221 214.701132,243.305664 C214.290974,243.273763 214.002728,243.246419 213.836386,243.223633 C213.670044,243.200846 213.451296,243.156413 213.180136,243.090332 C212.908976,243.024251 212.71985,242.930827 212.612753,242.810059 C212.505657,242.68929 212.452109,242.535483 212.452109,242.348633 C212.452109,241.97949 212.61617,241.700359 212.944296,241.51123 C213.272423,241.322102 213.682575,241.227539 214.174765,241.227539 C214.853805,241.227539 215.471312,241.327798 216.027304,241.52832 C216.583297,241.728842 217.034464,241.956704 217.38082,242.211914 L218.529257,240.810547 C218.055297,240.486978 217.43665,240.20101 216.6733,239.952637 C215.90995,239.704263 215.095342,239.580078 214.229453,239.580078 C213.92867,239.580078 213.634727,239.600586 213.347617,239.641602 C213.060506,239.682617 212.77226,239.747558 212.482871,239.836426 C212.193481,239.925293 211.929161,240.04606 211.689902,240.19873 C211.450643,240.351401 211.236452,240.531412 211.047324,240.73877 C210.858195,240.946127 210.711224,241.199054 210.606406,241.497559 C210.501588,241.796063 210.449179,242.123045 210.449179,242.478516 C210.449179,242.729168 210.478801,242.961587 210.538046,243.175781 C210.597291,243.389975 210.672486,243.577961 210.763632,243.739746 C210.854779,243.901531 210.978964,244.047363 211.136191,244.177246 C211.293418,244.30713 211.448365,244.417643 211.601035,244.508789 C211.753705,244.599935 211.94283,244.680826 212.168417,244.751465 C212.394005,244.822103 212.597941,244.877929 212.780234,244.918945 C212.962526,244.959961 213.185831,244.997558 213.450156,245.031738 C213.71448,245.065918 213.938924,245.089844 214.123496,245.103516 C214.308067,245.117188 214.53479,245.133138 214.803671,245.151367 C215.104454,245.174154 215.361939,245.200358 215.576132,245.22998 C215.790326,245.259603 215.999959,245.304036 216.205039,245.363281 C216.410118,245.422526 216.575318,245.493164 216.700644,245.575195 C216.82597,245.657227 216.92623,245.762044 217.001425,245.889648 C217.076621,246.017253 217.114218,246.167642 217.114218,246.34082 C217.114218,246.750979 216.918257,247.069986 216.526328,247.297852 C216.134399,247.525717 215.63538,247.639648 215.029257,247.639648 C214.596312,247.639648 214.175906,247.591797 213.768027,247.496094 C213.360147,247.40039 212.987592,247.265951 212.650351,247.092773 C212.31311,246.919595 212.032839,246.760092 211.809531,246.614258 C211.586222,246.468424 211.353803,246.297527 211.112265,246.101562 L209.977499,247.475586 Z" id="play"></path>
                </g>
            </g>
        </g>
    </g>
</svg>